<?xml version="1.0" encoding="UTF-8" standalone="no"?>
<svg
   xmlns:dc="http://purl.org/dc/elements/1.1/"
   xmlns:cc="http://creativecommons.org/ns#"
   xmlns:rdf="http://www.w3.org/1999/02/22-rdf-syntax-ns#"
   xmlns:svg="http://www.w3.org/2000/svg"
   xmlns="http://www.w3.org/2000/svg"
   xmlns:sodipodi="http://sodipodi.sourceforge.net/DTD/sodipodi-0.dtd"
   xmlns:inkscape="http://www.inkscape.org/namespaces/inkscape"
   viewBox="-80 -80 123.967 123.968"
   stroke-miterlimit="2"
   version="1.1"
   id="svg24"
   sodipodi:docname="bookwhen_api_logo.svg"
   width="123.967"
   height="123.968"
   style="clip-rule:evenodd;fill-rule:evenodd;stroke-linejoin:round;stroke-miterlimit:2"
   inkscape:version="0.92.5 (2060ec1f9f, 2020-04-08)">
  <metadata
     id="metadata30">
    <rdf:RDF>
      <cc:Work
         rdf:about="">
        <dc:format>image/svg+xml</dc:format>
        <dc:type
           rdf:resource="http://purl.org/dc/dcmitype/StillImage" />
        <dc:title></dc:title>
      </cc:Work>
    </rdf:RDF>
  </metadata>
  <defs
     id="defs28" />
  <sodipodi:namedview
     pagecolor="#ffffff"
     bordercolor="#666666"
     borderopacity="1"
     objecttolerance="10"
     gridtolerance="10"
     guidetolerance="10"
     inkscape:pageopacity="0"
     inkscape:pageshadow="2"
     inkscape:window-width="1920"
     inkscape:window-height="1015"
     id="namedview26"
     showgrid="false"
     fit-margin-top="0"
     fit-margin-left="0"
     fit-margin-right="0"
     fit-margin-bottom="0"
     inkscape:zoom="0.22204473"
     inkscape:cx="546.002"
     inkscape:cy="58"
     inkscape:window-x="0"
     inkscape:window-y="0"
     inkscape:window-maximized="1"
     inkscape:current-layer="svg24" />
  <path
     d="m -18.018,43.962 c 34.188,0 61.979,-27.79 61.979,-61.979 0,-34.17 -27.79,-61.979 -61.98,-61.979 h -61.977 v 61.98 c 0,34.188 27.81,61.978 61.979,61.978"
     id="path14"
     inkscape:connector-curvature="0"
     style="fill:#ffffff;fill-rule:nonzero" />
  <path
     d="m -17.907,2.781 c 11.456,0 20.769,-9.312 20.769,-20.768 0,-11.45 -9.313,-20.77 -20.769,-20.77 h -20.769 v 20.77 c 0,11.456 9.32,20.768 20.77,20.768"
     id="path16"
     inkscape:connector-curvature="0"
     style="fill:#53b17b;fill-rule:nonzero" />
  <path
     d="m -18.013,-80 h -20.663 v 20.581 h 20.77 c 22.843,0 41.43,18.588 41.43,41.432 0,22.843 -18.587,41.43 -41.43,41.43 -22.845,0 -41.432,-18.587 -41.432,-41.43 V -80 H -80 v 61.988 c 0,34.23 27.756,61.98 61.987,61.98 34.231,0 61.98,-27.75 61.98,-61.98 C 43.967,-52.244 16.218,-80 -18.013,-80"
     id="path18"
     inkscape:connector-curvature="0"
     style="fill:#53b17b;fill-rule:nonzero" />
</svg>
